<svg width="24" height="24" viewBox="0 0 24 24" fill="none" xmlns="http://www.w3.org/2000/svg">
<path d="M8 1.71633V0H16V1.71633H8ZM11 14.503H13V7.92372H11V14.503ZM12 24C10.3556 24 8.80556 23.7282 7.35 23.1847C5.89444 22.6412 4.62222 21.9023 3.53333 20.9678C2.44444 20.0334 1.58333 18.9416 0.95 17.6925C0.316667 16.4434 0 15.1132 0 13.702C0 12.2908 0.316667 10.9607 0.95 9.71156C1.58333 8.46246 2.44444 7.37068 3.53333 6.43623C4.62222 5.50179 5.89444 4.76281 7.35 4.21931C8.80556 3.6758 10.3556 3.40405 12 3.40405C13.4889 3.40405 14.8889 3.61859 16.2 4.04768C17.5111 4.47676 18.6778 5.07271 19.7 5.83552L21.4 4.37664L22.8 5.57807L21.1 7.03695C21.9 7.79976 22.5833 8.72467 23.15 9.81168C23.7167 10.8987 24 12.1955 24 13.702C24 15.1132 23.6833 16.4434 23.05 17.6925C22.4167 18.9416 21.5556 20.0334 20.4667 20.9678C19.3778 21.9023 18.1056 22.6412 16.65 23.1847C15.1944 23.7282 13.6444 24 12 24ZM12 22.2837C14.7778 22.2837 17.1389 21.4493 19.0833 19.7807C21.0278 18.112 22 16.0858 22 13.702C22 11.3182 21.0278 9.29201 19.0833 7.62336C17.1389 5.95471 14.7778 5.12038 12 5.12038C9.22222 5.12038 6.86111 5.95471 4.91667 7.62336C2.97222 9.29201 2 11.3182 2 13.702C2 16.0858 2.97222 18.112 4.91667 19.7807C6.86111 21.4493 9.22222 22.2837 12 22.2837Z" fill="#858585"/>
</svg>
